<svg width="2560" height="1440" version="1.1" xmlns="http://www.w3.org/2000/svg" desc="Created with imagetracer.js version 1.2.6" ><path fill="rgb(0,0,0)" stroke="rgb(0,0,0)" stroke-width="1" opacity="0" d="M 0 0 L 2560 0 L 2560 1440 L 0 1440 L 0 0 Z M 679 34 L 679 37 L 677 38 L 669 47 Q 670 50 667 49 L 666 52 Q 667 54 664 53 Q 665 58 660 60 L 660 62 L 658 62 L 658 64 L 656 64 L 656 66 Q 653 65 654 68 L 654 70 L 652 70 L 651 73 Q 652 76 649 75 L 649 79 L 645 81 L 645 84 L 639 92 Q 639 97 636 99 Q 637 102 634 101 L 634 105 L 632 105 L 628 114 Q 629 117 626 116 L 626 120 L 621 129 L 621 131 L 619 132 L 619 137 L 617 137 Q 618 140 615 142 L 615 146 Q 612 145 613 150 L 613 152 L 611 152 L 610 156 Q 611 160 608 159 L 608 166 L 604 173 L 604 177 L 602 179 Q 603 185 600 185 L 600 191 L 600 193 L 598 193 L 595 210 L 595 219 L 593 219 L 593 231 L 591 233 L 591 255 L 589 257 L 589 303 L 591 302 L 590 304 L 591 306 L 591 328 L 593 330 L 593 339 L 595 340 L 593 341 L 595 341 L 596 355 Q 599 358 598 365 L 600 367 L 600 372 L 602 374 L 602 380 L 604 379 L 603 381 L 604 386 L 606 388 L 606 393 L 610 400 L 611 408 L 613 410 Q 612 415 615 415 L 615 420 L 617 421 L 617 425 L 619 424 Q 618 428 621 430 L 621 434 L 623 436 L 623 439 L 626 443 L 626 446 Q 629 445 628 450 L 630 450 L 630 455 L 634 457 Q 633 462 636 464 Q 635 468 638 467 L 639 470 Q 638 473 641 472 L 640 474 L 643 479 Q 642 481 645 480 L 645 484 L 647 484 L 647 487 L 649 487 L 649 492 L 651 492 L 651 495 L 654 499 Q 653 501 656 500 L 658 504 Q 657 507 660 506 L 660 510 L 664 512 L 664 515 L 666 515 L 667 518 L 667 521 L 671 523 L 671 526 L 675 528 L 675 530 L 677 530 Q 675 535 679 534 Q 678 538 682 540 Q 681 542 684 541 L 684 543 L 686 543 L 686 545 L 688 545 L 688 549 L 692 551 L 694 554 L 695 554 L 695 558 L 699 560 L 699 562 L 701 562 L 701 565 L 703 565 L 703 569 Q 706 568 705 571 L 708 571 Q 707 574 710 576 Q 709 578 712 577 L 712 579 L 714 579 L 714 582 L 718 584 L 718 586 L 720 586 L 720 590 L 723 594 Q 722 600 725 603 L 723 611 L 723 626 Q 719 629 720 638 L 716 644 L 716 648 Q 713 647 714 653 Q 710 652 712 657 L 710 657 L 707 664 Q 708 666 705 665 L 705 668 L 701 670 L 699 674 Q 696 673 697 676 L 695 676 L 694 679 Q 691 678 692 681 L 690 681 L 690 683 L 686 683 L 686 685 L 683 683 Q 677 685 678 681 Q 674 682 673 678 L 669 678 L 667 674 L 665 674 L 658 665 Q 655 666 656 663 L 654 663 L 654 659 L 652 659 L 649 653 Q 650 649 647 650 Q 648 645 645 644 Q 646 638 643 639 L 643 633 L 641 633 L 641 621 L 639 619 L 639 601 L 641 599 L 641 589 L 643 588 L 643 581 L 645 581 Q 644 577 647 576 Q 645 570 649 571 Q 648 566 652 565 Q 651 561 654 562 L 654 558 L 656 558 L 656 554 L 660 552 L 660 549 L 662 549 Q 663 544 660 543 L 660 540 L 656 538 L 656 534 L 652 532 L 651 529 Q 652 526 649 527 Q 650 524 647 523 Q 648 520 645 521 L 645 517 L 641 515 L 641 512 L 639 512 L 639 508 L 637 508 L 634 502 Q 635 498 632 499 L 632 495 L 630 495 Q 631 492 628 491 Q 629 488 626 489 L 626 485 L 624 485 L 624 482 L 617 482 Q 618 485 615 484 L 615 487 L 613 487 L 613 491 L 611 491 L 602 510 L 602 512 L 600 512 L 600 515 L 595 524 Q 596 528 593 527 Q 594 530 591 532 L 591 534 L 589 535 L 589 540 L 587 540 L 587 545 L 585 545 L 585 551 L 582 557 L 582 562 L 580 564 L 580 571 L 578 571 L 578 579 L 576 581 L 576 624 L 578 626 L 578 633 Q 582 632 580 638 L 582 638 L 583 649 L 589 659 L 589 662 L 593 664 L 593 666 L 595 666 Q 594 672 598 675 Q 597 677 600 676 L 602 680 Q 601 682 604 681 L 608 688 Q 607 690 610 689 L 612 692 Q 614 691 613 694 L 615 694 Q 614 697 617 699 Q 616 701 619 700 L 619 702 L 621 702 L 621 705 L 623 704 L 625 707 L 632 713 L 633 715 L 630 715 L 630 717 L 624 717 L 624 719 L 613 720 L 610 722 L 585 722 L 573 719 L 562 719 L 561 717 L 554 717 L 553 715 L 546 715 L 546 713 L 540 713 L 539 715 Q 534 714 533 717 Q 530 716 531 719 L 526 722 Q 523 721 524 724 L 522 724 L 522 726 L 520 726 L 520 728 L 518 728 L 518 730 Q 513 729 514 732 L 510 735 Q 506 734 507 737 L 505 737 L 499 743 Q 496 742 497 745 L 494 745 L 494 747 L 486 752 L 486 756 Q 489 755 488 758 L 491 758 L 491 760 L 497 761 Q 499 760 498 763 L 501 763 L 501 765 L 505 765 L 505 767 L 509 767 L 509 769 L 513 769 L 513 771 L 518 771 L 518 773 L 529 776 Q 534 775 534 778 L 541 778 L 542 780 L 548 780 L 548 782 L 557 782 L 559 784 L 586 784 L 587 785 L 589 784 L 589 785 Q 586 784 587 788 L 585 788 L 585 793 L 582 798 Q 584 805 580 804 L 580 834 L 582 834 L 582 843 L 585 848 L 585 852 L 587 854 Q 586 856 589 855 L 589 860 L 593 862 L 593 865 L 595 865 L 595 868 L 600 874 Q 599 876 602 875 L 602 877 L 604 877 L 606 883 L 611 887 Q 610 889 613 888 L 613 890 L 615 890 L 615 892 L 617 892 L 617 894 L 619 894 L 619 896 L 621 896 L 621 898 L 623 898 L 623 901 L 626 901 Q 625 906 630 908 Q 629 910 632 909 L 632 911 L 634 911 L 634 913 L 638 914 L 639 917 Q 638 919 641 918 L 643 922 L 643 924 L 647 926 L 647 929 L 651 931 L 652 934 Q 651 936 654 935 Q 653 938 656 940 L 656 942 L 660 944 L 660 946 L 662 946 L 662 950 L 664 950 L 664 953 L 669 962 Q 668 964 671 963 L 671 968 L 673 968 L 673 970 L 675 971 L 675 976 Q 679 975 677 980 L 679 980 L 680 989 L 682 992 Q 681 997 684 997 L 684 1002 L 686 1002 Q 684 1009 688 1011 L 688 1018 L 690 1020 L 690 1032 L 692 1032 L 692 1053 L 693 1054 L 693 1084 L 692 1085 L 692 1103 L 690 1104 L 690 1113 Q 686 1114 689 1116 Q 687 1117 688 1123 L 686 1123 L 686 1129 L 684 1129 L 684 1135 Q 681 1134 682 1138 L 680 1138 L 677 1125 Q 678 1120 675 1121 L 675 1111 L 673 1110 L 673 1099 L 671 1097 L 671 1031 L 669 1029 L 669 1014 L 667 1012 Q 669 1005 665 1006 L 665 999 L 664 998 Q 665 992 662 993 L 662 987 L 660 987 L 660 982 L 658 982 L 658 979 L 654 973 L 654 969 Q 651 970 652 968 L 652 966 L 649 962 Q 650 958 647 959 L 647 956 L 645 956 L 643 950 L 642 950 L 642 949 L 641 947 L 640 947 L 639 945 L 636 946 L 632 946 Q 633 949 630 948 Q 631 953 628 953 L 628 956 L 626 956 Q 627 960 623 962 L 623 965 Q 620 964 621 969 L 619 969 L 617 977 L 613 982 L 613 985 L 610 990 Q 611 995 608 994 L 608 1000 Q 604 999 606 1004 L 604 1004 L 604 1010 L 602 1010 L 602 1015 L 600 1017 L 600 1023 L 598 1025 L 598 1030 L 596 1033 Q 597 1037 595 1039 Q 596 1046 593 1046 L 593 1055 L 591 1056 L 591 1066 L 589 1066 L 589 1078 L 587 1080 L 587 1101 L 587 1103 Q 588 1105 585 1104 L 585 1118 L 586 1119 L 585 1123 L 585 1135 L 587 1136 L 587 1162 L 589 1163 L 589 1174 L 591 1174 L 591 1184 L 593 1186 L 593 1194 L 595 1194 L 596 1207 Q 599 1208 598 1214 L 600 1216 Q 599 1223 602 1222 Q 601 1225 604 1227 L 604 1233 Q 608 1232 606 1237 L 608 1237 L 608 1243 L 610 1243 Q 610 1251 615 1257 Q 614 1260 617 1259 L 617 1263 L 619 1263 L 619 1267 L 623 1269 L 623 1274 L 628 1282 Q 627 1285 630 1284 L 630 1287 L 632 1287 L 632 1291 L 636 1293 Q 634 1298 638 1297 L 639 1301 Q 638 1303 641 1302 L 640 1304 L 642 1304 L 641 1306 L 643 1306 L 645 1310 Q 644 1313 647 1312 L 647 1315 L 651 1317 Q 650 1322 654 1324 Q 653 1326 656 1325 L 656 1328 L 660 1330 L 660 1332 L 662 1332 L 662 1335 L 667 1341 L 667 1343 L 671 1345 L 671 1347 L 673 1347 L 673 1350 L 676 1351 L 677 1355 L 683 1357 L 687 1355 L 686 1354 L 689 1352 Q 691 1353 690 1349 L 693 1349 L 693 1345 Q 696 1346 695 1344 L 701 1339 Q 700 1335 703 1336 L 703 1334 L 705 1334 L 706 1328 L 710 1326 L 710 1323 L 714 1321 L 714 1318 L 721 1309 Q 720 1305 723 1306 L 723 1302 L 725 1302 L 727 1298 L 727 1296 L 729 1296 Q 728 1292 731 1293 L 730 1292 L 734 1287 Q 733 1283 736 1284 L 736 1280 L 738 1280 L 738 1276 L 740 1276 L 740 1272 L 742 1272 L 742 1270 L 746 1264 L 748 1256 L 751 1253 Q 749 1247 753 1248 L 755 1240 L 755 1238 L 757 1237 L 757 1234 L 761 1227 L 764 1212 L 764 1210 L 766 1210 Q 764 1202 768 1203 L 768 1197 L 770 1195 Q 769 1189 771 1188 L 770 1186 L 772 1186 L 772 1178 L 774 1176 L 775 1154 L 777 1149 L 777 1084 L 775 1079 L 774 1058 L 772 1056 L 772 1048 L 771 1047 L 770 1045 Q 771 1037 768 1038 L 768 1031 L 766 1030 L 766 1024 L 764 1023 L 764 1017 L 762 1017 L 761 1008 L 757 1000 Q 759 994 755 995 Q 756 990 753 989 L 753 984 Q 749 985 751 980 L 749 980 Q 750 973 746 971 Q 747 966 744 967 L 740 959 Q 741 956 738 957 Q 739 953 736 952 Q 737 947 734 948 Q 735 943 731 942 Q 732 938 729 939 L 729 935 L 725 933 L 725 929 Q 722 930 723 926 L 721 926 L 718 920 Q 719 917 716 918 Q 717 914 714 913 L 712 913 L 712 909 L 708 907 L 708 903 L 706 903 L 703 898 Q 704 895 701 896 L 701 894 L 699 894 L 699 890 L 697 890 Q 698 887 696 888 L 692 883 Q 693 880 690 881 L 690 879 L 688 879 L 686 873 L 684 872 L 682 872 L 682 868 L 680 868 L 677 864 Q 678 861 675 862 L 675 859 L 671 857 L 671 855 L 669 855 L 669 851 L 665 849 L 662 844 Q 663 841 660 842 L 660 840 L 658 840 L 658 836 L 656 836 Q 657 833 654 832 Q 656 826 652 827 L 652 821 L 651 820 L 651 802 L 652 801 L 652 794 Q 656 794 654 788 Q 658 789 656 784 L 658 784 L 658 780 L 660 780 L 660 776 L 662 776 L 665 771 Q 664 768 667 769 L 667 767 L 669 767 L 669 765 L 671 765 L 671 763 L 673 763 L 673 761 L 680 756 Q 679 753 682 754 L 682 752 L 685 752 L 685 750 Q 687 749 686 752 L 688 752 L 688 754 L 690 754 L 690 756 L 692 756 Q 694 762 699 766 Q 698 768 701 767 L 701 769 L 703 769 L 703 771 L 705 771 L 705 775 L 708 777 L 708 780 Q 711 779 710 784 L 712 785 L 712 790 L 714 789 L 713 791 L 716 797 L 716 806 L 718 806 L 718 836 Q 714 838 716 846 L 714 848 L 714 859 L 712 859 L 712 875 L 714 875 L 716 879 L 716 881 L 720 883 L 723 889 Q 722 891 725 890 L 724 892 L 727 893 L 726 893 L 726 894 Q 728 893 727 896 L 729 896 L 729 899 L 731 899 L 731 901 Q 734 900 733 903 L 733 905 L 736 905 L 736 908 Q 735 910 738 909 L 738 912 L 742 917 Q 741 919 744 918 L 744 922 Q 747 921 746 924 L 751 924 L 751 922 L 753 922 L 755 919 Q 754 915 757 916 L 756 915 L 759 911 Q 758 906 761 907 L 762 901 L 766 895 L 766 892 L 768 892 L 768 886 L 770 886 L 770 883 L 772 881 L 775 870 Q 773 863 777 864 Q 776 858 779 857 L 779 850 L 781 848 L 781 804 L 779 803 L 779 795 L 777 795 L 777 789 Q 774 786 774 780 L 772 778 Q 773 774 770 775 Q 771 771 768 770 Q 769 766 766 767 L 766 763 Q 763 764 764 760 L 762 760 L 761 756 Q 762 753 759 754 L 759 752 L 755 747 L 753 747 L 753 743 L 749 741 L 746 737 L 746 734 L 742 732 L 742 730 L 740 730 L 740 728 L 738 728 L 738 725 L 736 725 Q 737 721 735 722 L 733 719 L 731 719 L 732 717 L 731 717 L 729 717 L 732 715 L 734 715 L 736 711 L 738 711 L 738 709 L 742 707 Q 745 708 744 705 L 747 704 L 749 704 L 751 700 L 755 700 L 755 698 L 759 698 Q 758 695 762 696 L 762 694 L 766 694 L 766 692 L 780 691 L 782 689 L 791 689 L 794 691 L 802 691 L 803 692 L 807 692 Q 806 696 811 694 L 811 696 L 815 696 L 815 698 L 819 698 L 819 700 L 824 700 L 826 696 L 830 694 Q 832 695 831 692 L 834 692 L 835 690 L 838 689 Q 840 690 839 687 L 842 687 L 841 686 Q 844 687 846 683 Q 845 680 849 681 L 848 680 L 850 680 L 855 676 Q 857 677 856 674 L 859 674 L 859 672 L 863 670 L 865 670 L 867 666 L 874 663 Q 875 658 872 656 L 863 650 Q 858 651 859 648 L 856 648 L 845 642 L 840 642 Q 839 639 834 640 L 832 638 L 814 637 L 812 635 L 790 635 L 789 637 L 785 637 L 785 631 L 787 631 L 790 621 L 790 607 L 792 605 L 792 592 L 790 590 L 790 578 Q 788 576 789 572 L 787 570 Q 789 563 785 564 L 785 562 L 781 556 L 781 553 L 777 551 L 777 548 L 772 540 Q 769 541 770 538 L 768 538 L 768 534 L 766 534 L 766 532 L 764 532 L 764 530 Q 761 531 762 529 L 759 527 Q 760 522 755 521 Q 756 518 753 519 L 753 517 L 751 517 L 751 515 L 748 514 Q 749 511 746 512 L 744 508 L 736 499 L 734 499 L 733 497 Q 734 494 731 495 Q 732 492 729 491 Q 730 488 727 489 L 727 487 L 725 487 L 725 484 L 721 482 L 718 476 Q 719 473 716 474 L 716 471 L 712 469 L 712 465 L 708 463 L 708 459 L 706 459 L 705 456 Q 706 453 703 454 L 703 450 L 701 450 L 701 447 L 699 447 L 699 443 L 697 443 L 697 438 Q 694 438 695 433 L 693 433 L 692 426 L 688 420 Q 690 414 686 415 Q 688 408 684 407 Q 686 399 682 400 Q 684 393 680 392 L 680 386 L 678 384 L 677 370 L 675 368 L 675 358 L 673 357 L 673 338 L 671 336 L 671 298 L 673 297 L 673 283 L 675 282 L 675 275 L 677 273 L 677 266 L 680 258 L 680 253 Q 683 253 682 249 L 684 249 L 684 254 L 686 254 Q 684 261 688 263 Q 687 271 690 271 L 690 280 L 690 282 L 692 282 L 692 297 L 693 298 L 693 356 L 695 363 L 695 383 L 697 385 L 697 394 L 700 400 L 699 402 L 701 401 L 701 404 Q 700 409 703 408 L 703 414 L 705 414 L 710 429 L 710 431 L 712 431 L 712 435 L 715 439 L 715 438 L 716 438 L 716 442 L 720 444 L 720 450 L 722 450 L 723 453 L 724 454 L 729 454 L 732 449 L 731 447 L 733 447 L 734 445 Q 733 441 736 442 Q 735 439 738 438 L 738 435 L 740 435 L 740 429 L 742 429 L 742 424 L 744 424 L 749 412 L 749 409 L 751 409 L 751 403 L 753 403 L 753 399 L 757 392 Q 755 385 759 386 L 759 381 L 762 374 L 762 369 L 762 367 L 764 367 L 764 360 L 766 359 Q 765 352 768 349 L 768 342 L 770 340 Q 769 332 772 330 L 772 316 L 774 313 L 775 256 L 774 253 L 774 233 L 772 232 L 772 219 L 770 217 L 770 207 L 768 206 L 768 197 L 766 196 L 766 187 L 764 187 Q 766 181 762 180 L 761 170 L 759 167 Q 760 162 758 163 L 757 161 L 757 156 L 755 156 Q 756 151 753 152 L 753 146 L 751 146 L 751 143 L 746 133 Q 747 128 744 129 L 744 127 L 740 121 L 740 118 L 738 116 Q 739 112 736 113 L 736 109 Q 733 110 734 108 L 733 105 Q 734 102 731 103 Q 732 100 729 99 Q 730 95 727 96 L 727 92 L 725 92 L 725 88 L 721 86 Q 722 82 718 81 Q 719 76 716 77 Q 717 74 714 73 Q 715 70 712 71 L 712 68 L 710 68 L 708 65 Q 709 61 706 62 L 705 60 L 705 57 L 701 55 L 701 53 L 699 53 L 699 49 Q 696 50 697 48 L 695 48 Q 696 44 693 45 L 688 36 Q 685 37 684 34 L 679 34 Z M 1283 355 L 1259 361 Q 1243 367 1232 378 Q 1217 391 1209 412 L 1205 425 L 1204 436 L 1203 437 L 1203 468 L 1204 469 L 1205 481 L 1211 500 L 1222 519 Q 1232 531 1247 539 L 1262 545 L 1277 548 L 1306 548 L 1325 544 L 1340 539 L 1345 539 L 1351 502 L 1335 500 L 1324 525 L 1316 530 L 1305 533 L 1283 533 L 1278 532 Q 1267 529 1260 522 Q 1249 512 1243 499 L 1236 474 L 1235 455 L 1234 454 L 1235 431 L 1238 416 Q 1242 400 1251 389 L 1267 375 L 1277 371 L 1289 370 L 1290 369 L 1291 370 L 1305 370 L 1321 375 L 1324 381 L 1327 401 L 1329 407 L 1330 409 L 1347 409 L 1347 401 L 1348 400 L 1348 383 L 1349 382 L 1349 365 L 1350 364 L 1349 362 L 1317 356 L 1309 356 L 1308 355 L 1283 355 Z M 1774 355 L 1754 359 L 1743 363 L 1722 376 Q 1706 389 1698 409 L 1693 424 L 1691 435 L 1691 443 L 1690 444 L 1690 464 L 1694 487 Q 1700 506 1711 520 Q 1720 530 1732 537 L 1751 545 L 1766 548 L 1794 548 Q 1795 546 1801 547 L 1847 535 L 1848 535 L 1848 467 L 1861 465 L 1862 465 L 1862 449 L 1789 449 L 1788 450 L 1788 465 Q 1794 467 1804 466 L 1805 467 L 1817 467 L 1818 468 L 1819 469 L 1819 524 L 1804 531 L 1794 533 L 1786 533 L 1785 534 L 1766 532 L 1752 525 Q 1739 515 1732 501 L 1725 480 L 1724 469 L 1723 468 L 1723 459 L 1722 458 L 1722 440 L 1723 439 L 1723 430 L 1726 416 Q 1731 399 1741 388 Q 1748 379 1760 374 L 1772 370 Q 1778 372 1780 369 L 1801 370 L 1818 376 L 1819 378 L 1824 403 Q 1823 407 1825 407 L 1843 407 L 1844 405 L 1844 387 L 1845 386 L 1845 367 L 1846 364 L 1845 362 Q 1838 363 1836 360 L 1819 357 L 1812 357 L 1811 356 L 1803 356 L 1802 355 L 1774 355 Z M 851 357 L 851 370 L 853 371 L 865 372 L 866 373 Q 872 372 872 374 L 872 529 L 871 530 L 864 530 L 856 532 L 851 532 L 851 545 L 914 545 L 914 545 L 914 532 L 890 530 L 891 389 L 908 420 L 981 526 L 993 545 L 1015 545 L 1015 545 L 1015 373 L 1022 373 L 1029 371 L 1035 371 L 1035 357 L 976 357 L 975 358 L 975 371 L 997 373 L 997 505 L 984 481 L 900 359 L 900 357 L 851 357 Z M 1109 401 Q 1090 404 1079 414 Q 1068 422 1061 435 L 1055 449 L 1052 464 Q 1049 507 1068 529 L 1083 541 L 1095 546 L 1105 548 L 1127 548 L 1136 546 Q 1150 542 1160 533 Q 1170 524 1176 512 L 1180 502 L 1183 488 L 1183 460 Q 1181 458 1182 454 L 1177 437 L 1169 423 Q 1153 398 1109 401 Z M 1404 401 L 1396 403 L 1374 405 L 1372 407 L 1372 420 L 1374 421 L 1389 424 L 1390 426 L 1390 531 L 1380 531 L 1379 532 L 1371 532 L 1371 545 L 1449 545 L 1449 545 L 1449 532 L 1420 531 L 1419 530 L 1417 530 L 1417 441 Q 1428 431 1446 428 L 1463 428 L 1470 431 L 1470 403 L 1469 401 Q 1456 399 1449 402 Q 1436 406 1427 414 L 1417 425 L 1413 428 L 1413 412 L 1414 407 Q 1412 401 1404 401 Z M 1911 401 L 1903 403 L 1881 405 L 1879 407 L 1879 420 L 1881 421 L 1896 424 L 1897 426 L 1897 531 L 1887 531 L 1886 532 L 1878 532 L 1878 545 L 1956 545 L 1956 545 L 1956 532 L 1927 531 L 1926 530 L 1924 530 L 1924 441 Q 1935 431 1953 428 L 1970 428 L 1977 431 L 1977 403 L 1976 401 Q 1963 399 1956 402 Q 1943 406 1934 414 L 1924 425 L 1920 428 L 1920 412 L 1921 407 Q 1919 401 1911 401 Z M 2050 401 Q 2032 405 2020 414 L 2004 432 L 1996 450 L 1993 467 L 1993 484 L 1997 506 Q 2002 519 2010 530 L 2021 539 Q 2031 546 2046 548 L 2068 548 L 2077 546 Q 2090 542 2100 534 Q 2112 523 2119 508 L 2123 495 L 2124 481 L 2125 480 L 2124 458 L 2121 445 Q 2116 429 2107 419 Q 2098 408 2083 403 L 2073 401 L 2050 401 Z M 2179 401 L 2178 402 L 2158 403 L 2157 404 L 2147 404 L 2145 406 L 2145 417 L 2158 420 L 2159 422 L 2159 509 L 2164 529 L 2169 537 L 2179 544 L 2192 548 L 2211 548 L 2225 544 L 2248 529 L 2249 543 Q 2252 547 2259 548 L 2276 547 L 2287 544 L 2287 532 L 2273 532 L 2272 532 L 2272 404 L 2267 401 L 2252 402 L 2251 403 L 2241 403 L 2240 404 L 2229 404 L 2227 406 L 2227 417 L 2244 420 L 2245 422 L 2245 516 L 2230 526 L 2216 530 L 2207 530 L 2197 527 L 2189 518 L 2186 504 L 2186 405 L 2179 401 Z M 2336 401 L 2319 404 L 2312 404 L 2311 405 L 2304 405 L 2302 407 L 2302 420 L 2320 424 L 2321 426 L 2321 591 L 2315 591 L 2308 593 L 2303 593 L 2303 607 L 2374 607 L 2374 607 L 2374 593 L 2348 591 L 2348 559 L 2347 558 L 2347 545 L 2360 548 L 2383 548 L 2393 546 Q 2408 541 2420 531 Q 2431 521 2437 507 L 2441 496 L 2444 480 L 2444 460 L 2443 459 L 2442 447 Q 2438 430 2429 419 Q 2418 405 2399 401 L 2379 401 L 2368 404 Q 2354 409 2346 419 L 2345 406 L 2340 401 L 2336 401 Z M 1474 404 L 1474 417 L 1476 418 L 1486 420 L 1533 544 L 1534 545 L 1545 545 Q 1542 560 1533 572 Q 1526 581 1514 585 L 1497 585 L 1493 583 L 1492 606 L 1497 608 L 1517 608 Q 1528 606 1536 599 L 1547 586 L 1559 562 L 1571 531 L 1607 420 L 1619 418 L 1620 417 L 1620 404 L 1569 404 L 1568 405 L 1568 417 L 1585 421 L 1553 528 L 1550 524 L 1544 502 L 1517 420 L 1536 417 L 1536 405 L 1536 404 L 1474 404 Z M 545 605 L 545 607 L 544 607 L 540 612 L 537 613 Q 538 615 535 614 L 535 616 L 533 616 L 533 618 L 531 618 L 531 620 L 529 620 L 529 622 L 527 622 L 527 624 L 522 627 Q 519 626 520 629 L 518 629 L 518 631 Q 514 630 513 634 Q 514 636 511 635 L 511 637 L 505 640 Q 502 639 503 642 L 500 642 L 498 646 L 496 646 L 496 648 L 492 648 L 492 650 Q 488 649 487 653 Q 484 652 485 655 Q 482 654 481 657 Q 478 656 479 659 L 475 659 L 473 663 L 470 663 L 470 665 Q 465 664 464 668 Q 460 667 461 670 L 458 672 Q 454 671 455 674 L 451 674 L 451 676 L 449 676 L 439 683 Q 435 682 436 685 L 432 685 L 432 687 L 429 687 L 427 691 L 421 691 L 421 693 L 417 694 Q 413 693 414 696 Q 411 695 410 698 L 405 698 L 405 700 Q 400 699 401 702 L 395 702 L 395 704 L 390 704 L 390 706 L 380 707 L 378 709 Q 370 708 371 711 L 361 711 L 358 713 Q 350 712 351 715 L 336 715 L 332 717 L 286 717 L 284 715 L 265 715 L 264 713 Q 257 714 255 711 L 247 711 L 239 707 L 230 706 Q 229 703 232 704 L 231 703 L 233 703 L 238 702 L 240 702 L 241 700 L 249 700 L 249 698 Q 254 699 257 696 L 257 698 Q 262 699 261 696 L 266 696 L 268 696 L 268 694 L 289 694 L 291 692 L 294 693 L 296 692 L 316 692 L 318 694 L 335 694 L 338 692 L 366 691 L 368 689 L 376 689 L 377 687 L 384 687 Q 383 684 391 685 Q 390 682 395 683 L 395 681 L 401 681 L 401 679 L 409 678 L 411 676 Q 416 677 415 674 L 419 674 L 419 672 Q 422 673 421 670 L 425 670 L 425 668 L 429 668 L 429 666 L 432 666 Q 431 663 434 664 L 434 661 Q 431 662 432 659 Q 429 660 428 657 L 425 657 Q 426 654 424 655 L 421 655 Q 422 652 420 653 L 418 653 L 417 651 L 415 650 Q 411 651 412 648 L 408 648 L 408 646 L 404 646 L 404 644 L 402 644 L 396 640 Q 390 642 391 638 L 387 637 L 382 637 Q 383 633 378 635 L 378 633 Q 373 634 372 631 Q 366 633 367 629 Q 363 630 362 627 L 357 627 L 355 625 L 347 624 L 344 622 Q 336 624 337 620 Q 331 622 330 618 L 323 618 Q 321 615 316 616 L 314 614 L 302 614 L 300 612 L 287 612 L 277 610 L 238 610 L 229 612 L 216 612 L 214 614 L 204 614 L 201 615 L 201 616 L 196 616 L 196 618 L 186 618 L 184 620 Q 176 619 177 622 L 172 622 L 170 624 Q 163 624 160 627 Q 155 626 156 629 L 151 629 L 151 631 Q 146 630 145 633 Q 140 632 141 635 L 138 635 L 128 640 Q 124 639 125 642 L 121 642 L 121 644 L 117 644 L 117 646 Q 114 645 113 648 Q 109 647 110 650 L 107 650 L 99 655 Q 96 654 97 657 L 93 657 L 93 659 Q 90 658 89 661 Q 86 660 87 663 L 84 663 L 84 665 L 81 665 L 72 672 Q 69 671 70 674 L 67 674 L 65 678 L 62 678 L 54 685 Q 51 684 52 687 L 50 687 L 50 689 L 46 689 Q 47 692 44 691 L 43 694 Q 40 693 41 696 L 36 698 L 36 700 L 33 700 Q 34 703 31 702 L 31 707 L 35 709 L 35 711 L 39 713 L 41 713 Q 40 716 43 715 L 44 719 L 48 720 Q 50 719 49 722 Q 50 724 52 722 L 51 724 L 55 724 L 58 729 L 63 732 Q 66 731 65 734 L 69 734 L 69 736 L 73 737 L 72 739 L 80 743 L 80 745 L 84 745 L 84 747 Q 86 745 88 748 L 89 747 L 89 749 L 91 748 L 91 750 Q 94 749 96 752 Q 98 751 97 754 L 99 754 L 99 756 L 104 756 Q 103 759 108 758 L 108 760 L 111 761 Q 113 760 112 763 Q 116 762 119 765 L 121 765 L 122 766 L 120 767 L 124 767 L 126 767 L 126 769 L 134 773 L 144 776 L 146 778 L 151 778 L 156 782 L 164 784 L 166 784 Q 166 787 171 786 L 173 787 Q 172 789 175 788 L 180 789 L 184 789 Q 183 792 188 791 L 192 791 L 191 793 Q 198 792 202 795 Q 208 793 207 797 L 216 797 L 218 799 L 231 799 L 233 799 L 233 801 L 291 801 L 295 799 L 309 799 Q 310 796 316 797 L 318 795 L 326 795 L 326 793 L 334 793 L 336 791 Q 342 793 341 789 L 353 788 L 355 786 Q 360 787 363 784 L 365 784 L 366 782 L 371 782 L 371 780 Q 375 781 377 778 Q 381 779 380 776 Q 386 777 389 773 L 393 773 Q 392 769 397 771 L 397 769 L 402 769 L 400 768 Q 404 768 406 765 Q 411 767 410 763 L 423 758 L 425 758 Q 424 755 428 756 L 428 754 L 432 754 L 432 752 Q 437 754 436 750 L 440 750 L 438 749 Q 444 749 447 745 Q 450 746 449 743 Q 452 744 454 741 Q 457 742 456 739 L 460 739 Q 459 736 462 737 L 464 737 L 464 735 Q 470 735 473 730 Q 477 731 476 728 Q 479 729 481 726 Q 484 727 483 724 L 486 724 L 486 722 L 495 719 L 500 715 L 503 715 L 502 714 L 506 713 L 505 712 L 508 711 Q 510 712 509 709 L 512 709 L 512 707 L 517 706 L 521 704 Q 523 705 522 702 Q 525 703 527 700 Q 530 701 529 698 L 532 698 L 531 697 L 533 697 L 538 694 Q 540 695 539 692 L 543 691 L 546 691 Q 545 688 550 689 L 550 687 L 553 687 Q 552 684 555 685 L 555 683 L 559 683 L 560 681 L 561 683 L 561 681 L 570 678 L 572 676 L 572 670 Q 568 671 570 666 L 568 666 L 567 663 L 567 660 Q 564 660 565 655 Q 562 656 563 652 L 561 652 L 561 646 L 559 646 Q 560 641 557 640 Q 559 634 555 635 L 554 621 L 552 618 L 553 616 L 552 610 L 551 607 Q 551 604 545 605 Z M 1087 610 L 1079 612 L 1064 612 L 1063 614 L 1061 614 L 1053 614 L 1052 616 L 1046 616 L 1046 618 L 1035 618 L 1033 620 Q 1027 618 1028 622 L 1023 622 Q 1019 625 1013 625 L 1011 627 L 1007 627 L 1000 631 L 997 631 L 995 633 L 990 633 L 990 635 L 986 635 Q 987 638 984 637 L 982 637 L 977 640 L 973 640 Q 974 643 970 642 L 970 644 L 966 644 L 962 646 L 962 648 L 960 648 Q 956 647 957 650 L 954 650 L 944 655 Q 941 654 942 657 Q 938 656 937 659 Q 933 658 934 661 L 930 661 Q 931 664 927 663 L 927 665 Q 921 664 919 668 Q 915 667 916 670 L 912 670 L 912 672 L 910 672 L 904 676 Q 901 675 902 678 L 897 679 Q 894 678 895 681 Q 888 680 887 685 Q 883 684 884 687 L 880 687 L 880 689 L 876 689 Q 877 692 873 691 L 873 693 Q 867 692 865 696 Q 861 695 862 698 L 858 698 L 858 700 L 854 700 L 854 702 L 850 702 Q 851 705 847 704 L 847 706 L 844 706 L 835 711 Q 831 710 832 713 L 828 713 L 828 715 L 824 715 L 824 717 L 820 717 L 820 719 L 813 722 Q 810 721 811 724 L 809 724 Q 805 723 806 726 L 804 726 L 804 728 L 802 728 L 799 728 Q 799 731 794 730 L 794 732 L 792 732 L 783 737 Q 780 736 781 739 L 777 741 L 781 747 Q 780 749 783 748 L 783 752 L 787 754 L 787 758 L 792 768 Q 791 770 794 769 L 794 774 L 796 774 L 796 778 L 798 778 L 798 784 L 800 785 L 800 791 L 802 791 L 802 799 L 804 801 L 805 812 L 811 812 L 813 808 L 815 808 L 816 804 L 823 801 Q 825 802 824 799 L 826 799 L 826 797 L 828 797 L 828 795 L 830 795 L 833 791 Q 836 792 835 789 L 842 786 L 846 782 L 846 780 L 850 780 L 852 776 Q 857 776 859 773 L 859 771 L 863 771 L 865 767 L 869 767 L 871 763 L 874 763 L 874 761 L 881 758 Q 883 759 882 756 L 886 754 Q 888 755 887 752 L 891 752 L 893 748 Q 898 749 901 745 Q 903 746 902 743 L 906 743 L 906 741 Q 909 742 911 739 Q 913 740 912 737 L 915 737 L 915 735 L 924 732 L 941 722 Q 944 723 943 720 L 954 717 L 954 715 Q 959 717 958 713 L 963 713 L 969 709 Q 972 710 971 707 L 978 707 L 979 706 L 981 706 L 982 704 L 988 704 L 988 703 L 990 703 L 996 700 Q 1002 702 1001 698 Q 1008 700 1010 696 L 1020 696 L 1021 694 L 1033 694 L 1033 692 L 1085 692 L 1086 694 L 1100 694 L 1100 696 L 1108 696 Q 1109 699 1114 698 Q 1115 701 1117 699 L 1124 702 L 1130 702 L 1130 706 L 1120 707 L 1118 709 Q 1112 708 1113 711 L 1105 711 L 1103 711 L 1101 712 L 1099 711 Q 1096 710 1097 713 L 1093 713 L 1093 715 L 1016 715 L 1016 717 L 1007 717 L 1005 719 L 997 719 L 990 722 Q 982 720 983 724 L 981 724 Q 976 723 977 726 L 973 726 L 966 730 L 963 730 L 963 732 Q 957 730 958 734 L 954 735 L 951 735 L 951 737 L 947 737 L 947 739 L 946 738 L 942 740 L 944 741 L 941 743 Q 937 742 938 745 L 934 745 L 934 752 L 938 754 Q 941 753 940 756 L 942 755 L 945 757 L 948 760 L 952 760 L 959 765 L 962 765 L 964 767 L 971 769 L 971 771 Q 976 769 975 773 L 986 776 L 988 776 L 989 778 L 994 778 Q 993 782 998 780 L 998 782 Q 1004 781 1006 784 Q 1010 783 1009 786 L 1023 789 Q 1030 788 1029 791 L 1038 791 Q 1039 795 1046 793 L 1048 795 L 1057 795 L 1059 797 L 1072 797 L 1074 799 L 1140 799 L 1142 797 L 1154 797 Q 1156 793 1164 795 L 1166 793 L 1174 793 Q 1173 790 1179 791 Q 1180 787 1182 790 L 1192 788 L 1194 786 L 1196 787 L 1200 786 L 1199 785 L 1201 785 L 1207 782 L 1210 782 L 1212 780 L 1217 780 Q 1216 777 1222 778 L 1221 777 L 1223 777 L 1229 774 Q 1231 775 1230 772 L 1238 771 L 1237 770 L 1237 769 L 1239 770 L 1242 769 L 1249 764 L 1250 765 Q 1252 766 1251 763 L 1255 763 L 1255 761 L 1257 761 L 1265 756 L 1268 756 Q 1267 753 1270 754 L 1269 753 L 1274 750 Q 1276 751 1275 748 L 1280 747 Q 1283 748 1282 745 Q 1287 746 1289 742 Q 1291 743 1290 741 L 1292 741 Q 1291 737 1295 739 L 1295 738 L 1302 733 Q 1304 734 1303 731 L 1306 730 Q 1308 731 1307 728 L 1311 728 L 1311 726 Q 1314 727 1313 725 L 1317 721 L 1318 722 Q 1321 723 1320 720 L 1322 720 Q 1321 715 1326 717 L 1326 715 L 1328 715 Q 1327 712 1330 713 L 1333 709 L 1335 709 Q 1334 706 1337 707 L 1337 702 Q 1334 703 1335 700 L 1333 699 Q 1330 700 1331 697 L 1329 697 L 1329 696 L 1326 693 Q 1323 694 1324 691 L 1322 691 L 1322 689 L 1318 689 L 1318 687 L 1305 678 Q 1302 679 1303 676 L 1300 676 L 1298 672 L 1294 672 Q 1295 669 1293 670 L 1290 670 Q 1291 667 1288 668 L 1288 666 L 1285 665 Q 1282 666 1283 663 L 1279 663 L 1277 659 L 1273 659 L 1273 657 Q 1270 658 1269 655 Q 1265 656 1266 653 L 1263 653 L 1256 648 Q 1252 649 1253 646 L 1249 646 L 1249 644 L 1245 644 L 1245 642 Q 1242 643 1241 640 L 1237 640 L 1228 635 Q 1222 637 1223 633 L 1219 633 L 1213 629 Q 1207 631 1208 627 L 1198 625 L 1196 625 L 1191 622 Q 1183 623 1184 620 L 1177 620 L 1176 618 Q 1169 620 1168 616 L 1161 616 L 1159 614 L 1149 614 L 1147 612 Q 1133 614 1125 610 L 1087 610 Z " /><path fill="rgb(0,0,0)" stroke="rgb(0,0,0)" stroke-width="1" opacity="0" d="M 1112.5 416 L 1123.5 416 L 1130.5 418 L 1143 428.5 Q 1149.6 438.9 1152 453.5 Q 1150.5 459 1153 460.5 L 1153 491.5 L 1148 511.5 Q 1143.8 521.8 1135.5 528 L 1122.5 533 L 1113.5 533 Q 1098.4 530.6 1092 519.5 Q 1085.5 508.5 1083 493.5 Q 1084.8 487.3 1082 485.5 L 1082 459.5 L 1083 458.5 L 1084 447.5 L 1088 435.5 L 1098.5 422 L 1112.5 416 Z " /><path fill="rgb(0,0,0)" stroke="rgb(0,0,0)" stroke-width="1" opacity="0" d="M 2053.5 416 Q 2072.9 414.6 2081 424.5 L 2088 435.5 L 2092 447.5 L 2094 458.5 L 2095 481.5 L 2094 482.5 L 2093 499.5 L 2089 512.5 Q 2084.7 522.2 2076.5 528 Q 2069.1 534.1 2054.5 533 Q 2040.2 530.8 2034 520.5 Q 2027.6 510.9 2025 497.5 L 2024 482.5 L 2023 481.5 L 2023 463.5 L 2024 462.5 L 2024 453.5 L 2028 438.5 Q 2031.5 429 2038.5 423 Q 2044.2 417.7 2053.5 416 Z " /><path fill="rgb(0,0,0)" stroke="rgb(0,0,0)" stroke-width="1" opacity="0" d="M 2374.5 419 Q 2395.6 418.9 2404 431.5 Q 2410.3 439.3 2413 450.5 L 2414 462.5 L 2415 463.5 L 2415 482.5 L 2414 483.5 L 2413 496.5 L 2408 511.5 L 2396.5 526 Q 2386.1 535.6 2364.5 534 L 2353.5 531 L 2348 526.5 L 2348 431.5 L 2349.5 430 L 2362.5 422 L 2374.5 419 Z " /><path fill="rgb(0,0,0)" stroke="rgb(0,0,0)" stroke-width="1" opacity="0" d="M 224.5 704 L 228 705.5 L 225.5 706 L 224.5 704 Z " /><path fill="rgb(230,183,7)" stroke="rgb(230,183,7)" stroke-width="1" opacity="0.9294117647058824" d="M 679 34 L 683.5 34 Q 684.6 36.8 688 36 L 693 45 Q 696 43.8 695 47.5 L 697 47.5 Q 696.3 50.1 699 49 L 699 53 L 701 53 L 701 55 L 705 57 L 705 59.5 L 706 62 Q 709 60.8 708 64.5 L 710 68 L 712 68 L 712 71 Q 714.7 69.9 714 72.5 Q 716.8 73.6 716 77 Q 719.3 75.7 718 80.5 Q 721.8 81.7 721 86 L 725 88 L 725 92 L 727 92 L 727 96 Q 730 94.8 729 98.5 Q 731.8 99.6 731 103 Q 733.7 101.9 733 104.5 L 734 107.5 Q 733.3 110.1 736 109 L 736 113 Q 739 111.8 738 115.5 L 740 117.5 L 740 120.5 L 744 126.5 L 744 129 Q 747.3 127.7 746 132.5 L 751 142.5 L 751 146 L 753 146 L 753 151.5 Q 756.3 150.7 755 156 L 757 156 L 757 160.5 L 757.5 163 Q 760.5 162.1 759 166.5 L 761 169.5 L 762 179.5 Q 765.5 181.2 764 187 L 766 187 L 766 195.5 L 768 196.5 L 768 205.5 L 770 206.5 L 770 216.5 L 772 218.5 L 772 232 L 774 232.5 L 774 252.5 L 775 255.5 L 774 312.5 L 772 315.5 L 772 329.5 Q 768.6 332.1 770 339.5 L 768 341.5 L 768 348.5 Q 765.1 352.4 766 359 L 764 359.5 L 764 366.5 L 762 368.5 L 762 373.5 L 759 380.5 L 759 386 Q 755 384.6 757 391.5 L 753 398.5 L 752.5 403 L 751 402.5 L 751 408.5 L 749 409 L 749 411.5 L 744 424 L 742 424 L 742 429 L 740 429 L 740 434.5 L 738 435 L 738 437.5 Q 735.3 438.6 736 442 Q 733 440.8 734 444.5 L 732.5 447 L 731 446.5 L 732 448.5 L 729 454 L 723.5 454 L 723 452.5 L 722 450 L 720 450 L 720 444 L 716 442 L 716 437.5 L 715 437.5 L 714.5 439 L 712 434.5 L 712 431 L 710 430.5 L 710 428.5 L 705 414 L 703 414 L 703 407.5 Q 700 408.5 701 403.5 L 699 400.5 L 699 398.5 Q 699.8 394.3 697 393.5 L 697 384.5 L 695 382.5 L 695 362.5 L 693 355.5 L 693 297.5 L 692 296.5 L 692 282 L 690 281.5 L 690 279.5 L 690 270.5 Q 686.6 271.3 688 262.5 Q 684.3 260.6 686 254 L 684 254 L 684 249 L 682 249 Q 683 253.3 680 252.5 L 680 257.5 L 677 265.5 L 677 272.5 L 675 274.5 L 675 282 L 673 282.5 L 673 296.5 L 671 297.5 L 671 335.5 L 673 337.5 L 673 357 L 675 357.5 L 675 367.5 L 677 369.5 L 678 383.5 L 680 385.5 L 680 391.5 Q 683.8 393.4 682 400 Q 685.5 398.9 684 406.5 Q 687.8 408.4 686 415 Q 689.7 413.6 688 419.5 L 692 425.5 L 693 433 L 695 433 Q 693.8 438.3 697 437.5 L 697 443 L 699 443 L 699 447 L 701 447 L 701 450 L 703 450 L 703 454 Q 705.7 452.9 705 455.5 L 706 459 L 708 459 L 708 463 L 712 465 L 712 469 L 716 471 L 716 474 Q 718.7 472.9 718 475.5 L 721 482 L 725 484 L 725 487 L 727 487 L 727 489 Q 729.7 487.9 729 490.5 Q 731.8 491.6 731 495 Q 733.7 493.9 733 496.5 L 734 499 L 735.5 499 L 744 507.5 L 746 512 Q 748.7 510.9 748 513.5 L 751 515 L 751 517 L 753 517 L 753 519 Q 755.7 517.9 755 520.5 Q 759.8 521.9 759 527 L 762 528.5 Q 761.3 531.1 764 530 L 764 532 L 766 532 L 766 534 L 768 534 L 768 538 L 770 538 Q 768.9 540.7 771.5 540 L 777 547.5 L 777 551 L 781 553 L 781 555.5 L 785 561.5 L 785 564 Q 789 562.6 787 569.5 L 789 571.5 Q 787.8 576.2 790 577.5 L 790 589.5 L 792 591.5 L 792 604.5 L 790 606.5 L 790 620.5 L 786.5 631 L 785 630.5 L 785 637 L 789 637 L 789.5 635 L 811.5 635 L 813.5 637 L 831.5 638 L 833.5 640 Q 838.5 639 839.5 642 L 844.5 642 L 855.5 648 L 859 648 Q 857.7 651.3 862.5 650 L 872 655.5 Q 875 657.8 874 663 L 867 666 L 865 670 L 862.5 670 L 859 672 L 859 674 L 856 674 Q 857.1 676.7 854.5 676 L 848.5 681 L 846 681 L 841.5 687 L 839 687 Q 840.1 689.7 837.5 689 L 835 689.5 L 833.5 692 L 831 692 Q 832.1 694.7 829.5 694 L 826 696 L 824 700 L 819 700 L 819 698 L 815 698 L 815 696 L 811 696 L 811 694 Q 805.8 695.7 807 692 L 802.5 692 L 801.5 691 L 793.5 691 L 790.5 689 L 781.5 689 L 779.5 691 L 766 692 L 766 694 L 762 694 L 762 696 Q 757.9 694.7 759 698 L 755 698 L 755 700 L 751 700 L 749 704 L 746.5 704 L 744 705 Q 745.3 708 741.5 707 L 738 709 L 738 711 L 736 711 L 734 715 L 731.5 715 L 732 716.5 L 731 718.5 L 733 719 L 734.5 722 Q 737.5 721.2 736 725 L 738 725 L 738 728 L 740 728 L 740 730 L 742 730 L 742 732 L 746 734 L 746 736.5 L 749 741 L 753 743 L 753 747 L 754.5 747 L 759 751.5 L 759 754 Q 761.7 752.9 761 755.5 L 762 760 L 764 760 Q 762.7 764.1 766 763 L 766 767 Q 769 765.8 768 769.5 Q 771 770.8 770 775 Q 773 773.8 772 777.5 L 774 779.5 Q 774 785.5 777 788.5 L 777 795 L 779 795 L 779 802.5 L 781 803.5 L 781 847.5 L 779 849.5 L 779 856.5 Q 775.5 858.2 777 864 Q 773 862.6 775 869.5 L 772 880.5 L 770 882.5 L 770 886 L 768 886 L 768 891.5 L 766 892 L 766 894.5 L 762 900.5 L 761 907 Q 757.7 905.7 759 910.5 L 756 914.5 L 756.5 916 Q 753.9 915.2 755 918.5 L 752.5 922 L 751 921.5 L 751 924 L 746 924 Q 747 921 744 922 L 744 918 Q 741.3 919.1 742 916.5 L 738 911.5 L 738 909 Q 735.3 910.1 736 907.5 L 735.5 905 L 733 904.5 L 733 902.5 Q 733.7 899.9 731 901 L 731 898.5 L 729 898.5 L 729 896 L 727 896 Q 728.1 893.3 725.5 894 L 725.5 893 L 727 892.5 L 724 891.5 L 724.5 890 Q 722.3 890.8 723 888.5 L 720 883 L 716 881 L 716 878.5 L 714 875 L 712 874.5 L 712 859 L 714 858.5 L 714 847.5 L 716 845.5 Q 714 837.5 718 835.5 L 718 806 L 716 805.5 L 716 796.5 L 714 796.5 L 714 794.5 Q 714.8 790.3 712 789.5 L 712 784 L 710 784 Q 711.3 778.7 708 779.5 L 708 776.5 L 705 775 L 705 771 L 703 771 L 703 769 L 701 769 L 701 767 Q 698.3 768.1 699 765.5 Q 693.7 762 692 756 L 690 756 L 690 754 L 688 754 L 688 752 L 686 752 Q 687.1 749.3 684.5 750 L 684.5 752 L 682 752 L 682 754 Q 679.3 752.9 680 755.5 L 673 761 L 673 763 L 671 763 L 671 765 L 669 765 L 669 767 L 667 767 L 667 769 Q 664.3 767.9 665 770.5 L 662 776 L 660 776 L 660 780 L 658 780 L 658 784 L 656 784 Q 657.7 789.2 654 788 Q 655.5 794.3 652 793.5 L 652 800.5 L 651 801.5 L 651 819.5 L 652 820.5 L 652 827 Q 655.7 825.6 654 831.5 Q 656.7 832.6 656 836 L 658 836 L 658 840 L 660 840 L 660 842 Q 662.7 840.9 662 843.5 L 665 849 L 669 851 L 669 855 L 671 855 L 671 857 L 675 859 L 675 862 Q 677.7 860.9 677 863.5 L 680 868 L 682 868 L 682 872 L 683.5 872 L 686 873 L 688 879 L 690 879 L 690 881 Q 692.7 879.9 692 882.5 L 695.5 888 Q 698.1 887.3 697 890 L 699 890 L 699 894 L 701 894 L 701 896 Q 703.7 894.9 703 897.5 L 706 903 L 708 903 L 708 907 L 712 909 L 712 913 L 713.5 913 Q 716.8 914.2 716 918 Q 718.7 916.9 718 919.5 L 721 926 L 723 926 Q 721.7 930.1 725 929 L 725 933 L 729 935 L 729 939 Q 732 937.8 731 941.5 Q 734.6 943.4 734 948 Q 737.3 946.7 736 951.5 Q 739 952.8 738 957 Q 740.7 955.9 740 958.5 L 744 967 Q 747.3 965.7 746 970.5 Q 749.9 973.5 749 980 L 751 980 Q 749.3 985.2 753 984 L 753 988.5 Q 756.3 990 755 995 Q 758.7 993.6 757 999.5 L 761 1007.5 L 762 1017 L 764 1017 L 764 1023 L 766 1023.5 L 766 1029.5 L 768 1030.5 L 768 1037.5 Q 771.2 1036.6 770 1044.5 L 770.5 1047 L 772 1047.5 L 772 1055.5 L 774 1057.5 L 775 1078.5 L 777 1083.5 L 777 1148.5 L 775 1153.5 L 774 1175.5 L 772 1177.5 L 772 1185.5 Q 768.8 1187.8 770 1194.5 L 768 1196.5 L 768 1203 Q 764.5 1201.9 766 1209.5 L 762 1217.5 L 761 1226.5 L 757 1233.5 L 757 1237 L 755 1237.5 L 755 1239.5 L 753 1248 Q 749.3 1246.7 751 1252.5 L 748 1255.5 L 746 1263.5 L 742 1269.5 L 742 1272 L 740 1272 L 740 1276 L 738 1276 L 738 1280 L 736 1280 L 736 1284 Q 733 1282.8 734 1286.5 L 730 1291.5 L 730.5 1293 Q 727.9 1292.2 729 1295.5 L 725 1302 L 723 1302 L 723 1306 Q 720 1304.8 721 1308.5 L 714 1317.5 L 714 1321 L 710 1323 L 710 1325.5 L 706 1328 L 704.5 1334 L 703 1333.5 L 703 1336 Q 700 1334.8 701 1338.5 L 695 1343.5 Q 695.7 1346.1 693 1345 L 693 1349 L 690 1349 Q 691.5 1352.8 688.5 1352 L 686 1353.5 L 686.5 1355 L 682.5 1357 L 677 1355 L 676 1351 L 673 1349.5 L 673 1347 L 671 1347 L 671 1345 L 667 1343 L 667 1340.5 L 662 1334.5 L 662 1332 L 660 1332 L 660 1330 L 656 1328 L 656 1325 Q 653.3 1326.1 654 1323.5 Q 650.4 1321.6 651 1317 L 647 1315 L 647 1312 Q 644 1313.3 645 1309.5 L 643 1306 L 641 1305.5 L 641.5 1304 L 640 1303.5 L 640.5 1302 Q 638.3 1302.8 639 1300.5 L 638 1297 Q 634.3 1298.2 636 1293 L 632 1291 L 632 1287 L 630 1287 L 630 1284 Q 627 1285.3 628 1281.5 L 623 1273.5 L 623 1269 L 619 1267 L 619 1263 L 617 1263 L 617 1259 Q 614 1260.3 615 1256.5 Q 610.2 1251.4 610 1243 L 608 1243 L 608 1237 L 606 1237 Q 607.7 1231.8 604 1233 L 604 1226.5 Q 601.3 1225.4 602 1222 Q 598.5 1223.1 600 1215.5 L 598 1213.5 Q 598.8 1208.2 596 1206.5 L 595 1194 L 593 1193.5 L 593 1185.5 L 591 1183.5 L 591 1174 L 589 1173.5 L 589 1162.5 L 587 1161.5 L 587 1135.5 L 585 1134.5 L 585 1122.5 L 586 1118.5 L 585 1117.5 L 585 1104 Q 587.7 1105.1 587 1102.5 L 587 1100.5 L 587 1079.5 L 589 1077.5 L 589 1066 L 591 1065.5 L 591 1055.5 L 593 1054.5 L 593 1045.5 Q 596.2 1046.4 595 1038.5 Q 597.3 1037.2 596 1032.5 L 598 1029.5 L 598 1024.5 L 600 1022.5 L 600 1016.5 L 602 1014.5 L 602 1010 L 604 1010 L 604 1004 L 606 1004 Q 604.3 998.8 608 1000 L 608 993.5 Q 611 994.5 610 989.5 L 616 977.5 L 615.5 976 L 617 976.5 L 619 969 L 621 969 Q 619.8 963.7 623 964.5 L 623 961.5 Q 626.7 960.3 626 956 L 628 956 L 628 952.5 Q 631.2 953.3 630 948 Q 633 949 632 946 L 635.5 946 L 639 945 L 639.5 947 L 641 946.5 L 645 956 L 647 956 L 647 959 Q 650 957.8 649 961.5 L 652 965.5 L 652 967.5 Q 651.3 970.1 654 969 L 654 972.5 L 658 978.5 L 658 982 L 660 982 L 660 987 L 662 987 L 662 992.5 Q 665.3 991.5 664 997.5 L 665 998.5 L 665 1006 Q 669 1004.6 667 1011.5 L 669 1013.5 L 669 1028.5 L 671 1030.5 L 671 1096.5 L 673 1098.5 L 673 1110 L 675 1110.5 L 675 1120.5 Q 678 1119.5 677 1124.5 L 680 1138 L 682 1138 Q 680.7 1133.9 684 1135 L 684 1129 L 686 1128.5 L 686 1122.5 L 688 1122.5 Q 686.5 1117 689 1115.5 Q 686.5 1114 690 1112.5 L 690 1103.5 L 692 1102.5 L 692 1084.5 L 693 1083.5 L 693 1053.5 L 692 1052.5 L 692 1032 L 690 1031.5 L 690 1019.5 L 688 1017.5 L 688 1010.5 Q 684.3 1008.6 686 1002 L 684 1002 L 684 996.5 Q 680.8 997.5 682 991.5 L 680 988.5 L 679 980 L 677 980 Q 678.7 974.8 675 976 L 675 970.5 L 673 970 L 673 967.5 L 671 967.5 L 671 963 Q 668.3 964.1 669 961.5 L 664 952.5 L 664 950 L 662 950 L 662 946 L 660 946 L 660 944 L 656 942 L 656 939.5 Q 653.3 938.4 654 935 Q 651.3 936.1 652 933.5 L 651 931 L 647 929 L 647 926 L 643 924 L 643 921.5 L 641 918 Q 638.3 919.1 639 916.5 L 638 914 L 634 913 L 634 911 L 632 911 L 632 909 Q 629.3 910.1 630 907.5 Q 625.3 906.1 626 901 L 623 901 L 623 898 L 621 898 L 621 896 L 619 896 L 619 894 L 617 894 L 617 892 L 615 892 L 615 890 L 613 890 L 613 888 Q 610.3 889.1 611 886.5 L 606 883 L 604 877 L 602 877 L 602 875 Q 599.3 876.1 600 873.5 L 595 867.5 L 595 865 L 593 865 L 593 862 L 589 860 L 589 855 Q 586.3 856.1 587 853.5 L 585 851.5 L 585 847.5 L 582 842.5 L 582 834 L 580 833.5 L 580 804 Q 583.5 805.1 582 797.5 L 585 792.5 L 585 788 Q 588 789.3 587 785.5 L 585.5 784 L 558.5 784 L 556.5 782 L 548 782 L 548 780 L 541.5 780 L 540.5 778 L 533.5 778 Q 534.5 774.8 528.5 776 L 518 773 L 518 771 L 513 771 L 513 769 L 509 769 L 509 767 L 505 767 L 505 765 L 501 765 L 501 763 L 498 763 Q 499.1 760.3 496.5 761 L 491 760 L 491 758 L 488 758 Q 489 755 486 756 L 486 751.5 L 494 747 L 494 745 L 497 745 Q 495.9 742.3 498.5 743 L 504.5 737 L 507 737 Q 505.8 734 509.5 735 L 514 732 Q 512.7 728.7 517.5 730 L 517.5 728 L 520 728 L 520 726 L 522 726 L 522 724 L 524 724 Q 522.9 721.3 525.5 722 L 531 719 Q 529.9 716.3 532.5 717 Q 533.9 713.8 539 715 L 539.5 713 L 546 713 L 546 715 L 552.5 715 L 553.5 717 L 560.5 717 L 561.5 719 L 572.5 719 L 584.5 722 L 609.5 722 L 612.5 720 L 624 718.5 L 623.5 717 L 629.5 717 L 630 715 L 632.5 715 L 631.5 713 L 624.5 707 L 622.5 704 L 621 704.5 L 621 702 L 619 702 L 619 700 Q 616.3 701.1 617 698.5 Q 614.3 697.4 615 694 L 613 694 Q 614.1 691.3 611.5 692 L 610 689 Q 607.3 690.1 608 687.5 L 604 681 Q 601.3 682.1 602 679.5 L 600 676 Q 597.3 677.1 598 674.5 Q 594.2 672.1 595 666 L 593 666 L 593 664 L 589 662 L 589 658.5 Q 586.3 657.3 586.5 653 L 585 653.5 Q 587.5 652 584 650.5 L 582 638 L 580 638 Q 581.5 631.7 578 632.5 L 578 625.5 L 576 623.5 L 576 580.5 L 578 578.5 L 578 571 L 580 570.5 L 580 563.5 L 582 561.5 L 582 556.5 L 585 550.5 L 585 545 L 587 545 L 587 540 L 589 540 L 589 534.5 L 591 534 L 591 531.5 Q 593.8 530.4 593 527 Q 596.3 528.3 595 523.5 L 600 514.5 L 600 512 L 602 511.5 L 602 509.5 L 611 491 L 613 491 L 613 487 L 615 487 L 615 484 Q 618 485 617 482 L 624 482 L 624 485 L 626 485 L 626 489 Q 628.7 487.9 628 490.5 Q 630.8 491.6 630 495 L 632 495 L 632 499 Q 635 497.8 634 501.5 L 637 508 L 639 508 L 639 512 L 641 512 L 641 515 L 645 517 L 645 521 Q 647.7 519.9 647 522.5 Q 649.8 523.6 649 527 Q 651.7 525.9 651 528.5 L 652 532 L 656 534 L 656 538 L 660 540 L 660 542.5 Q 663.3 544 662 549 L 660 549 L 660 552 L 656 554 L 656 558 L 654 558 L 654 562 Q 651 560.8 652 564.5 Q 648 565.9 649 571 Q 645.3 569.6 647 575.5 Q 644 576.8 645 581 L 643 581 L 643 587.5 L 641 588.5 L 641 598.5 L 639 600.5 L 639 618.5 L 641 620.5 L 641 633 L 643 633 L 643 638.5 Q 646.3 637.5 645 643.5 Q 648.3 644.9 647 650 Q 650 648.8 649 652.5 L 652 659 L 654 659 L 654 663 L 656 663 Q 654.9 665.7 657.5 665 L 665 674 L 667 674 L 669 678 L 672.5 678 Q 673.8 681.8 678 681 Q 676.6 684.7 682.5 683 L 686 685 L 686 683 L 690 683 L 690 681 L 692 681 Q 690.9 678.3 693.5 679 L 695 676 L 697 676 Q 695.9 673.3 698.5 674 L 701 670 L 705 668 L 705 665 Q 707.7 666.1 707 663.5 L 710 657 L 712 657 Q 710.3 651.8 714 653 Q 712.5 646.7 716 647.5 L 716 643.5 L 720 637.5 Q 719 629 723 625.5 L 723 610.5 L 725 602.5 Q 722.4 599.6 723 593.5 L 720 589.5 L 720 586 L 718 586 L 718 584 L 714 582 L 714 579 L 712 579 L 712 577 Q 709.3 578.1 710 575.5 Q 707.3 574.4 708 571 L 705 571 Q 706 568 703 569 L 703 564.5 L 701 564.5 L 701 562 L 699 562 L 699 560 L 695 558 L 695 554 L 693.5 554 L 692 551 L 688 549 L 688 545 L 686 545 L 686 543 L 684 543 L 684 541 Q 681.3 542.1 682 539.5 Q 678.3 538.3 679 534 Q 675.3 535.2 677 530 L 675 530 L 675 528 L 671 526 L 671 523 L 667 521 L 667 517.5 L 666 515 L 664 515 L 664 512 L 660 510 L 660 506 Q 657 507.3 658 503.5 L 656 500 Q 653.3 501.1 654 498.5 L 651 494.5 L 651 492 L 649 492 L 649 487 L 647 487 L 647 484 L 645 484 L 645 480 Q 642.3 481.1 643 478.5 L 640 473.5 L 640.5 472 Q 637.9 472.8 639 469.5 L 638 467 Q 634.7 468.3 636 463.5 Q 632.8 462.1 634 457 L 630 455 L 630 450 L 628 450 Q 629.3 444.7 626 445.5 L 626 442.5 L 623 438.5 L 623 435.5 L 621 433.5 L 621 429.5 Q 618.3 428.3 618.5 424 L 617 424.5 L 617 420.5 L 615 420 L 615 414.5 Q 611.8 415.5 613 409.5 L 611 407.5 L 610 399.5 L 606 392.5 L 606 387.5 L 602 379.5 L 602 373.5 Q 598.8 372.3 600 366.5 L 598 364.5 L 598 358.5 L 595 348.5 L 595 341 L 593 340.5 L 595 339.5 L 593 339 L 593 329.5 L 591 327.5 L 591 305.5 L 589 302.5 L 589 256.5 L 591 254.5 L 591 232.5 L 593 230.5 L 593 219 L 595 218.5 L 595 209.5 L 598 193 L 600 192.5 L 600 190.5 L 600 184.5 Q 603.5 185.5 602 178.5 L 604 176.5 L 604 172.5 L 608 165.5 L 608 159 Q 611.3 160.3 610 155.5 L 611 152 L 613 151.5 L 613 149.5 Q 612 144.5 615 145.5 L 615 141.5 Q 617.8 140.4 617 137 L 619 137 L 619 131.5 L 621 131 L 621 128.5 L 626 119.5 L 626 116 Q 629 117.3 628 113.5 L 632 105 L 634 105 L 634 101 Q 637 102.3 636 98.5 Q 639.2 96.7 639 91.5 L 645 83.5 L 645 81 L 649 79 L 649 75 Q 652 76.3 651 72.5 L 652 70 L 654 69.5 L 654 67.5 Q 653.3 64.9 656 66 L 656 64 L 658 64 L 658 62 L 660 62 L 660 59.5 Q 664.8 58.1 664 53 Q 666.7 54.1 666 51.5 L 667 49 Q 670 50.3 669 46.5 L 676.5 38 L 679 36.5 L 679 34 Z " /><path fill="rgb(230,183,7)" stroke="rgb(230,183,7)" stroke-width="1" opacity="0.9294117647058824" d="M 1282.5 355 L 1307.5 355 L 1308.5 356 L 1316.5 356 L 1348.5 362 L 1350 363.5 L 1349 364.5 L 1349 381.5 L 1348 382.5 L 1348 399.5 L 1347 400.5 L 1347 409 L 1329.5 409 L 1329 406.5 L 1327 400.5 L 1324 380.5 L 1320.5 375 L 1304.5 370 L 1290.5 370 L 1289.5 369 L 1288.5 370 L 1276.5 371 L 1266.5 375 L 1251 388.5 Q 1242.1 399.6 1238 415.5 L 1235 430.5 L 1234 453.5 L 1235 454.5 L 1236 473.5 L 1243 498.5 Q 1249.1 512.4 1259.5 522 Q 1266.7 528.8 1277.5 532 L 1282.5 533 L 1304.5 533 L 1315.5 530 L 1324 525 L 1334.5 500 L 1351 502 L 1345 539 L 1339.5 539 L 1324.5 544 L 1305.5 548 L 1276.5 548 L 1261.5 545 L 1246.5 539 Q 1232 531 1222 518.5 L 1211 499.5 L 1205 480.5 L 1204 468.5 L 1203 467.5 L 1203 436.5 L 1204 435.5 L 1205 424.5 L 1209 411.5 Q 1216.9 391.4 1231.5 378 Q 1242.8 367.3 1258.5 361 L 1282.5 355 Z " /><path fill="rgb(230,183,7)" stroke="rgb(230,183,7)" stroke-width="1" opacity="0.9294117647058824" d="M 1773.5 355 L 1801.5 355 L 1802.5 356 L 1810.5 356 L 1811.5 357 L 1818.5 357 L 1835.5 360 Q 1838.4 362.6 1844.5 362 L 1846 363.5 L 1845 366.5 L 1845 385.5 L 1844 386.5 L 1844 404.5 L 1843 407 L 1824.5 407 Q 1823.5 407 1824 402.5 L 1819 377.5 L 1817.5 376 L 1800.5 370 L 1779.5 369 Q 1777.7 371.8 1771.5 370 L 1759.5 374 Q 1748.4 378.9 1741 387.5 Q 1730.8 398.8 1726 415.5 L 1723 429.5 L 1723 438.5 L 1722 439.5 L 1722 457.5 L 1723 458.5 L 1723 467.5 L 1724 468.5 L 1725 479.5 L 1732 500.5 Q 1739.1 515.4 1751.5 525 L 1765.5 532 L 1784.5 534 L 1785.5 533 L 1793.5 533 L 1803.5 531 L 1819 523.5 L 1819 468.5 L 1817.5 468 L 1816.5 467 L 1804.5 467 L 1803.5 466 Q 1793.6 466.9 1788 465 L 1788 449.5 L 1788.5 449 L 1862 449 L 1862 464.5 L 1860.5 465 L 1848 467 L 1848 534.5 L 1846.5 535 L 1800.5 547 Q 1795 545.5 1793.5 548 L 1765.5 548 L 1750.5 545 L 1731.5 537 Q 1719.6 529.9 1711 519.5 Q 1699.5 506 1694 486.5 L 1690 463.5 L 1690 443.5 L 1691 442.5 L 1691 434.5 L 1693 423.5 L 1698 408.5 Q 1706.3 388.8 1721.5 376 L 1742.5 363 L 1753.5 359 L 1773.5 355 Z " /><path fill="rgb(230,183,7)" stroke="rgb(230,183,7)" stroke-width="1" opacity="0.9294117647058824" d="M 851 357 L 899.5 357 L 900 358.5 L 984 480.5 L 996.5 505 L 997 373 L 975 371 L 975 357.5 L 975.5 357 L 1035 357 L 1035 371 L 1028.5 371 L 1021.5 373 L 1015 373 L 1015 544.5 L 1014.5 545 L 993 545 L 981 525.5 L 908 419.5 L 890.5 389 L 890 530 L 914 532 L 914 544.5 L 913.5 545 L 851 545 L 851 532 L 855.5 532 L 863.5 530 L 870.5 530 L 872 528.5 L 872 373.5 Q 871.8 372.3 865.5 373 L 864.5 372 L 852.5 371 L 851 369.5 L 851 357 Z " /><path fill="rgb(230,183,7)" stroke="rgb(230,183,7)" stroke-width="1" opacity="0.9294117647058824" d="M 1108.5 401 Q 1152.8 397.7 1169 422.5 L 1177 436.5 L 1182 453.5 Q 1180.8 458.2 1183 459.5 L 1183 487.5 L 1180 501.5 L 1176 511.5 Q 1169.7 524.1 1159.5 533 Q 1149.6 541.6 1135.5 546 L 1126.5 548 L 1104.5 548 L 1094.5 546 L 1082.5 541 L 1068 528.5 Q 1049.3 506.7 1052 463.5 L 1055 448.5 L 1061 434.5 Q 1067.8 422.4 1078.5 414 Q 1090.2 404.2 1108.5 401 Z M 1113 416 L 1099 422 L 1088 436 L 1084 448 L 1083 459 L 1082 460 L 1082 486 Q 1085 487 1083 494 Q 1085 509 1092 520 Q 1098 531 1114 533 L 1123 533 L 1136 528 Q 1144 522 1148 512 L 1153 492 L 1153 461 Q 1151 459 1152 454 Q 1150 439 1143 429 L 1131 418 L 1124 416 L 1113 416 Z " /><path fill="rgb(230,183,7)" stroke="rgb(230,183,7)" stroke-width="1" opacity="0.9294117647058824" d="M 1403.5 401 Q 1411.6 400.9 1414 406.5 L 1413 411.5 L 1413 427.5 L 1417 424.5 L 1426.5 414 Q 1435.6 406.1 1448.5 402 Q 1456.4 399.4 1468.5 401 L 1470 402.5 L 1470 431 L 1462.5 428 L 1445.5 428 Q 1428.2 431.2 1417 440.5 L 1417 529.5 L 1418.5 530 L 1419.5 531 L 1449 532 L 1449 544.5 L 1448.5 545 L 1371 545 L 1371 532 L 1378.5 532 L 1379.5 531 L 1390 531 L 1390 425.5 L 1388.5 424 L 1373.5 421 L 1372 419.5 L 1372 406.5 L 1373.5 405 L 1395.5 403 L 1403.5 401 Z " /><path fill="rgb(230,183,7)" stroke="rgb(230,183,7)" stroke-width="1" opacity="0.9294117647058824" d="M 1910.5 401 Q 1918.6 400.9 1921 406.5 L 1920 411.5 L 1920 427.5 L 1924 424.5 L 1933.5 414 Q 1942.6 406.1 1955.5 402 Q 1963.4 399.4 1975.5 401 L 1977 402.5 L 1977 431 L 1969.5 428 L 1952.5 428 Q 1935.2 431.2 1924 440.5 L 1924 529.5 L 1925.5 530 L 1926.5 531 L 1956 532 L 1956 544.5 L 1955.5 545 L 1878 545 L 1878 532 L 1885.5 532 L 1886.5 531 L 1897 531 L 1897 425.5 L 1895.5 424 L 1880.5 421 L 1879 419.5 L 1879 406.5 L 1880.5 405 L 1902.5 403 L 1910.5 401 Z " /><path fill="rgb(230,183,7)" stroke="rgb(230,183,7)" stroke-width="1" opacity="0.9294117647058824" d="M 2049.5 401 L 2072.5 401 L 2082.5 403 Q 2097.8 407.7 2107 418.5 Q 2116.4 429.1 2121 444.5 L 2124 457.5 L 2125 479.5 L 2124 480.5 L 2123 494.5 L 2119 507.5 Q 2111.9 523.4 2099.5 534 Q 2090 542 2076.5 546 L 2067.5 548 L 2045.5 548 Q 2030.9 545.6 2020.5 539 L 2010 529.5 Q 2001.5 519.5 1997 505.5 L 1993 483.5 L 1993 466.5 L 1996 449.5 L 2004 431.5 L 2019.5 414 Q 2031.5 404.5 2049.5 401 Z M 2054 416 Q 2044 418 2039 423 Q 2032 429 2028 439 L 2024 454 L 2024 463 L 2023 464 L 2023 482 L 2024 483 L 2025 498 Q 2028 511 2034 521 Q 2040 531 2055 533 Q 2069 534 2077 528 Q 2085 522 2089 513 L 2093 500 L 2094 483 L 2095 482 L 2094 459 L 2092 448 L 2088 436 L 2081 425 Q 2073 415 2054 416 Z " /><path fill="rgb(230,183,7)" stroke="rgb(230,183,7)" stroke-width="1" opacity="0.9294117647058824" d="M 2178.5 401 L 2186 404.5 L 2186 503.5 L 2189 517.5 L 2196.5 527 L 2206.5 530 L 2215.5 530 L 2229.5 526 L 2245 515.5 L 2245 421.5 L 2243.5 420 L 2227 417 L 2227 405.5 L 2228.5 404 L 2239.5 404 L 2240.5 403 L 2250.5 403 L 2251.5 402 L 2266.5 401 L 2272 404 L 2272 531.5 L 2272.5 532 L 2287 532 L 2287 544 L 2275.5 547 L 2258.5 548 Q 2251.9 547.1 2249 542.5 L 2248 529 L 2224.5 544 L 2210.5 548 L 2191.5 548 L 2178.5 544 L 2169 536.5 L 2164 528.5 L 2159 508.5 L 2159 421.5 L 2157.5 420 L 2145 417 L 2145 405.5 L 2146.5 404 L 2156.5 404 L 2157.5 403 L 2177.5 402 L 2178.5 401 Z " /><path fill="rgb(230,183,7)" stroke="rgb(230,183,7)" stroke-width="1" opacity="0.9294117647058824" d="M 2335.5 401 L 2339.5 401 L 2345 405.5 L 2345.5 419 Q 2354.3 409.3 2367.5 404 L 2378.5 401 L 2398.5 401 Q 2418.5 405 2429 418.5 Q 2438.4 429.6 2442 446.5 L 2443 458.5 L 2444 459.5 L 2444 479.5 L 2441 495.5 L 2437 506.5 Q 2430.6 521.1 2419.5 531 Q 2408.5 541 2392.5 546 L 2382.5 548 L 2359.5 548 L 2347 545 L 2347 557.5 L 2348 558.5 L 2348 591 L 2374 593 L 2374 606.5 L 2373.5 607 L 2303 607 L 2303 593 L 2307.5 593 L 2314.5 591 L 2321 591 L 2321 425.5 L 2319.5 424 L 2302 420 L 2302 406.5 L 2303.5 405 L 2310.5 405 L 2311.5 404 L 2318.5 404 L 2335.5 401 Z M 2375 419 L 2363 422 L 2350 430 L 2348 432 L 2348 527 L 2354 531 L 2365 534 Q 2386 536 2397 526 L 2408 512 L 2413 497 L 2414 484 L 2415 483 L 2415 464 L 2414 463 L 2413 451 Q 2410 439 2404 432 Q 2396 419 2375 419 Z " /><path fill="rgb(230,183,7)" stroke="rgb(230,183,7)" stroke-width="1" opacity="0.9294117647058824" d="M 1474 404 L 1535.5 404 L 1536 404.5 L 1536 417 L 1517 420 L 1544 501.5 L 1550 523.5 L 1552.5 528 L 1585 420.5 L 1568 417 L 1568 404.5 L 1568.5 404 L 1620 404 L 1620 416.5 L 1618.5 418 L 1607 420 L 1571 530.5 L 1559 561.5 L 1547 585.5 L 1535.5 599 Q 1528.4 605.9 1516.5 608 L 1496.5 608 L 1492 605.5 L 1492.5 583 L 1496.5 585 L 1513.5 585 Q 1526.3 581.3 1533 571.5 Q 1541.5 560.2 1545 545 L 1533.5 545 L 1533 543.5 L 1486 420 L 1475.5 418 L 1474 416.5 L 1474 404 Z " /><path fill="rgb(230,183,7)" stroke="rgb(230,183,7)" stroke-width="1" opacity="0.9294117647058824" d="M 544.5 605 Q 551.5 603.5 551 606.5 L 552 609.5 L 553 615.5 L 552 617.5 L 554 620.5 L 555 635 Q 558.7 633.6 557 639.5 Q 560.3 640.9 559 646 L 561 646 L 561 652 L 563 652 Q 561.7 656.1 565 655 Q 563.8 660.3 567 659.5 L 567 662.5 L 568 666 L 570 666 Q 568.3 671.2 572 670 L 572 675.5 L 569.5 678 L 561 681 L 560.5 683 L 559.5 681 L 559 683 L 555 683 L 555 685 Q 552 684 553 687 L 550 687 L 550 689 Q 544.7 687.8 545.5 691 L 542.5 691 L 539 692 Q 540.1 694.7 537.5 694 L 531.5 698 L 529 698 Q 530.3 701 526.5 700 Q 525.4 702.8 522 702 Q 523.1 704.7 520.5 704 L 516.5 706 L 512 707 L 512 709 L 509 709 Q 510.1 711.7 507.5 711 Q 506.3 713.8 502 713.5 L 502.5 715 L 499.5 715 L 494.5 719 L 486 722 L 486 724 L 483 724 Q 484.3 727 480.5 726 Q 479.4 728.8 476 728 Q 477.3 731.3 472.5 730 L 472.5 732 L 471.5 731 L 468.5 734 L 464 735 L 463.5 737 L 461.5 737 Q 458.9 736.3 460 739 L 456 739 Q 457.3 742 453.5 741 Q 452.4 743.8 449 743 Q 450.3 746 446.5 745 Q 444.2 748.7 438 748.5 L 440 749.5 L 436 750 Q 437.4 753.7 431.5 752 L 431.5 754 L 428 754 L 428 756 Q 424.2 754.5 425 757.5 L 422.5 758 L 410 763 Q 411.4 766.7 405.5 765 L 405.5 767 L 403.5 767 L 400 767.5 L 402 768.5 L 397 769 L 397 771 Q 391.8 769.3 393 773 L 388.5 773 Q 386.1 776.7 380 776 Q 381.3 779.3 376.5 778 Q 375.3 781 371 780 L 371 782 L 365.5 782 L 365 783.5 L 362.5 784 Q 360.2 786.7 354.5 786 L 352.5 788 L 341 789 Q 342.4 793 335.5 791 L 333.5 793 L 326 793 L 325.5 795 L 317.5 795 L 315.5 797 Q 310.2 796.2 308.5 799 L 294.5 799 L 290.5 801 L 233 801 L 232.5 799 L 230.5 799 L 217.5 799 L 215.5 797 L 207 797 Q 208.4 793 201.5 795 L 198.5 793 Q 192.3 794.8 190.5 792 Q 189 794.5 187.5 791 Q 182.5 792 183.5 789 L 179.5 789 L 174.5 788 Q 172.3 788.8 173 786.5 L 170.5 786 Q 166.3 786.8 165.5 784 L 163.5 784 L 155.5 782 L 150.5 778 L 145.5 778 L 143.5 776 L 133.5 773 L 126 769 L 125.5 767 L 123.5 767 L 120.5 767 L 115.5 763 L 112 763 Q 113.1 760.3 110.5 761 L 108 760 L 108 758 Q 102.7 759.2 103.5 756 L 99 756 L 99 754 L 97 754 Q 98.1 751.3 95.5 752 L 93 751.5 L 93.5 750 Q 90.2 751.1 91 748.5 L 89 748.5 L 88.5 747 L 87.5 748 Q 85.8 744.9 84 746.5 L 84 745 L 80 745 L 80 742.5 L 78.5 743 L 77 742.5 L 79 741.5 L 72 738.5 L 72.5 737 L 69 735.5 L 69 734 L 65 734 Q 66.3 731 62.5 732 L 58 729 L 57.5 727 L 56 727.5 Q 58.3 726.3 55.5 725 L 54 725.5 L 54.5 724 Q 49.8 724.8 49 721.5 Q 49.8 719.3 47.5 720 L 44 719 L 43 715 Q 40 716 41 713 L 38.5 713 L 35 711 L 35 709 L 31 707 L 31 702 Q 34 703 33 700 L 35.5 700 L 35.5 698 L 41 696 Q 39.9 693.3 42.5 694 L 44 691 Q 47 692 46 689 L 50 689 L 50 687 L 52 687 Q 50.9 684.3 53.5 685 L 61.5 678 L 65 678 L 67 674 L 70 674 Q 68.9 671.3 71.5 672 L 80.5 665 L 84 665 L 84 663 L 87 663 Q 85.9 660.3 88.5 661 Q 89.6 658.3 93 659 L 93 657 L 97 657 Q 95.9 654.3 98.5 655 L 106.5 650 L 110 650 Q 108.8 647 112.5 648 Q 113.6 645.3 117 646 L 117 644 L 121 644 L 121 642 L 125 642 Q 123.8 639 127.5 640 L 137.5 635 L 141 635 Q 139.7 631.7 144.5 633 Q 146 629.8 151 631 L 151 629 L 155.5 629 Q 154.5 626 159.5 627 Q 162.7 623.7 169.5 624 L 171.5 622 L 177 622 Q 175.9 618.5 183.5 620 L 185.5 618 L 196 618 L 196 616 L 201 616 L 201 614.5 L 203.5 614 L 213.5 614 L 215.5 612 L 228.5 612 L 237.5 610 L 276.5 610 L 286.5 612 L 299.5 612 L 301.5 614 L 313.5 614 L 315.5 616 Q 321.3 614.8 322.5 618 L 329.5 618 Q 331.2 621.5 337 620 Q 335.9 623.5 343.5 622 L 346.5 624 L 354.5 625 L 356.5 627 L 361.5 627 Q 362.8 630 367 629 Q 365.6 632.7 371.5 631 Q 372.9 634.3 378 633 L 378 635 Q 383.2 633.3 382 637 L 386.5 637 L 391 638 Q 389.6 641.7 395.5 640 L 401.5 644 L 404 644 L 404 646 L 408 646 L 408 648 L 412 648 Q 410.8 651 414.5 650 L 417 651 L 417.5 653 L 419.5 653 Q 421.8 652.3 421 654.5 L 423.5 655 Q 426.1 654.3 425 657 L 427.5 657 Q 428.6 659.8 432 659 Q 431 662 434 661 L 434 664 Q 431 663 432 666 L 429 666 L 429 668 L 425 668 L 425 670 L 421 670 Q 422.3 673 418.5 672 L 418.5 674 L 414.5 674 Q 415.5 677 410.5 676 L 408.5 678 L 401 679 L 401 681 L 395 681 L 395 683 Q 389.7 681.8 390.5 685 Q 382.6 683.8 383.5 687 L 376.5 687 L 375.5 689 L 367.5 689 L 365.5 691 L 337.5 692 L 334.5 694 L 317.5 694 L 315.5 692 L 295.5 692 L 293.5 693 L 290.5 692 L 288.5 694 L 268 694 L 267.5 696 L 265.5 696 L 260.5 696 Q 261.5 699 256.5 698 L 254.5 697 L 249 698 L 249 700 L 240.5 700 L 240 701.5 L 237.5 702 L 233.5 702 L 230 704 Q 228.8 707 232.5 706 L 241.5 708 L 246.5 711 L 254.5 711 Q 257.3 714.4 264 713 L 264.5 715 L 283.5 715 L 285.5 717 L 331.5 717 L 335.5 715 L 350.5 715 Q 349.6 711.8 357.5 713 L 360.5 711 L 371 711 Q 369.9 707.5 377.5 709 L 379.5 707 L 390 706 L 390 704 L 395 704 L 395 702 L 400.5 702 Q 399.7 698.8 405 700 L 405 698 L 409.5 698 Q 410.6 695.3 414 696 Q 412.8 693 416.5 694 L 421 693 L 421 691 L 427 691 L 429 687 L 432 687 L 432 685 L 436 685 Q 434.8 682 438.5 683 L 448.5 676 L 451 676 L 451 674 L 455 674 Q 453.8 671 457.5 672 L 461 670 Q 459.8 667 463.5 668 Q 464.9 664 470 665 L 470 663 L 473 663 L 475 659 L 479 659 Q 477.9 656.3 480.5 657 Q 481.6 654.3 485 655 Q 483.9 652.3 486.5 653 Q 487.7 649.2 492 650 L 492 648 L 496 648 L 496 646 L 498 646 L 500 642 L 503 642 Q 501.9 639.3 504.5 640 L 511 637 L 511 635 Q 513.7 636.1 513 633.5 Q 514.2 630.3 518 631 L 518 629 L 520 629 Q 518.9 626.3 521.5 627 L 527 623.5 L 527 622 L 529 622 L 529 620 L 531 620 L 531 618 L 533 618 L 533 616 L 535 616 L 535 614 Q 537.7 615.1 537 612.5 L 540 611.5 L 543.5 607 L 545 606.5 L 544.5 605 Z M 225 704 L 226 706 L 228 706 L 225 704 Z " /><path fill="rgb(230,183,7)" stroke="rgb(230,183,7)" stroke-width="1" opacity="0.9294117647058824" d="M 1086.5 610 L 1124.5 610 Q 1132.8 613.7 1146.5 612 L 1148.5 614 L 1158.5 614 L 1160.5 616 L 1167.5 616 Q 1169.4 619.8 1176 618 L 1176.5 620 L 1183.5 620 Q 1182.6 623.2 1190.5 622 L 1195.5 625 L 1197.5 625 L 1208 627 Q 1206.7 630.7 1212.5 629 L 1218.5 633 L 1223 633 Q 1221.7 636.7 1227.5 635 L 1236.5 640 L 1240.5 640 Q 1241.6 642.8 1245 642 L 1245 644 L 1249 644 L 1249 646 L 1253 646 Q 1251.8 649 1255.5 648 L 1262.5 653 L 1266 653 Q 1264.8 656 1268.5 655 Q 1269.6 657.7 1273 657 L 1273 659 L 1277 659 L 1279 663 L 1283 663 Q 1281.9 665.7 1284.5 665 L 1288 666 L 1288 668 Q 1290.7 666.9 1290 669.5 L 1292.5 670 Q 1295.1 669.3 1294 672 L 1298 672 L 1300 676 L 1303 676 Q 1301.9 678.7 1304.5 678 L 1318 687 L 1318 689 L 1322 689 L 1322 691 L 1324 691 Q 1322.9 693.7 1325.5 693 L 1329 695.5 L 1329 697 L 1331 697 Q 1329.9 699.7 1332.5 699 L 1335 700 Q 1334 703 1337 702 L 1337 707 Q 1334 706 1335 709 L 1332.5 709 L 1330 713 Q 1327 712 1328 715 L 1325.5 715 L 1325.5 717 Q 1320.7 715.3 1322 719.5 L 1320 719.5 Q 1321.3 723.3 1317.5 722 L 1316.5 721 L 1313 724.5 Q 1313.8 727.1 1310.5 726 L 1310.5 728 L 1307 728 Q 1308.1 730.7 1305.5 730 L 1303 731 Q 1304.1 733.7 1301.5 733 L 1295 737.5 L 1295 739 Q 1291.3 737.5 1292 740.5 L 1290 740.5 Q 1290.8 742.8 1288.5 742 Q 1286.6 745.6 1282 745 Q 1283.3 748 1279.5 747 L 1275 748 Q 1276.1 750.7 1273.5 750 L 1269 752.5 L 1269.5 754 Q 1266.9 753.3 1268 756 L 1264.5 756 L 1256.5 761 L 1255 760.5 L 1255 763 L 1251 763 Q 1252.1 765.7 1249.5 765 L 1248.5 764 L 1241.5 769 L 1234.5 772 L 1230 772 Q 1231.1 774.7 1228.5 774 L 1221.5 778 L 1217 778 Q 1218.4 782 1211.5 780 L 1209.5 782 L 1206.5 782 L 1204.5 784 L 1201.5 784 L 1195.5 787 L 1193.5 786 L 1191.5 788 L 1181.5 790 Q 1180 787.5 1178.5 791 Q 1172.5 789.8 1173.5 793 L 1165.5 793 L 1163.5 795 Q 1155.5 793 1153.5 797 L 1141.5 797 L 1139.5 799 L 1073.5 799 L 1071.5 797 L 1058.5 797 L 1056.5 795 L 1047.5 795 L 1045.5 793 Q 1040 794.5 1038.5 792 L 1037 792.5 L 1037.5 791 L 1029.5 791 Q 1030.4 787.8 1022.5 789 L 1009 786 Q 1010.3 782.7 1005.5 784 L 1003 783.5 L 1003.5 782 L 998 782 L 998 780 Q 992.8 781.7 994 778 L 988.5 778 L 988 776 L 985.5 776 L 975 773 Q 976.4 769.3 970.5 771 L 970.5 769 L 963.5 767 L 961.5 765 L 958.5 765 L 951.5 760 L 947.5 760 L 944.5 757 L 941.5 755 L 940 755.5 Q 940.8 752.9 937.5 754 L 934 752 L 934 745 L 938 745 Q 936.8 742 940.5 743 L 944 740.5 L 942 739.5 L 946.5 737 L 951 737 Q 949.8 734 953.5 735 L 958 734 Q 956.6 730.3 962.5 732 L 962.5 730 L 965.5 730 L 972.5 726 L 977 726 Q 975.7 722.7 980.5 724 L 983 723.5 Q 982.5 720.5 989.5 722 L 996.5 719 L 1004.5 719 L 1006.5 717 L 1016 716.5 L 1015.5 715 L 1092.5 715 L 1093 713 L 1097 713 Q 1095.9 710.3 1098.5 711 L 1100.5 712 L 1102.5 711 L 1104.5 711 L 1112.5 711 Q 1111.5 707.7 1117.5 709 L 1119.5 707 L 1130 706 L 1130 702 L 1123.5 702 L 1116.5 699 Q 1115 701.5 1113.5 698 Q 1108.9 698.6 1107.5 696 L 1100 696 L 1099.5 694 L 1085.5 694 L 1084.5 692 L 1033 692 L 1032.5 694 L 1020.5 694 L 1019.5 696 L 1009.5 696 Q 1007.6 699.8 1001 698 Q 1002.4 702 995.5 700 L 989.5 703 L 988 702.5 L 988 704 L 981.5 704 L 981 706 L 978.5 706 L 977.5 707 L 971 707 Q 972.3 710 968.5 709 L 962.5 713 L 958 713 Q 959.4 716.7 953.5 715 L 953.5 717 L 943 720 Q 944.3 723 940.5 722 L 923.5 732 L 915 735 L 915 737 L 912 737 Q 913.1 739.7 910.5 739 Q 909.4 741.8 906 741 L 906 743 L 902 743 Q 903.1 745.7 900.5 745 Q 898.4 748.9 893 748 L 891 752 L 887 752 Q 888.1 754.7 885.5 754 L 882 756 Q 883.1 758.7 880.5 758 L 874 761 L 874 763 L 871 763 L 869 767 L 865 767 L 863 771 L 859 771 L 859 772.5 Q 856.9 776.1 852 776 L 850 780 L 846 780 L 846 781.5 L 841.5 786 L 835 789 Q 836.3 792 832.5 791 L 832.5 793 Q 831.3 790.8 830 793.5 L 830 795 L 828 795 L 828 797 L 826 797 L 826 799 L 824 799 Q 825.1 801.7 822.5 801 L 816 804 L 815 808 L 813 808 L 811 812 L 805 812 L 804 800.5 L 802 798.5 L 802 791 L 800 791 L 800 784.5 L 798 784 L 798 778 L 796 778 L 796 774 L 794 774 L 794 769 Q 791.3 770.1 792 767.5 L 787 757.5 L 787 754 L 783 751.5 L 783 748 Q 780.3 749.1 781 746.5 L 777 740.5 L 781 739 Q 779.9 736.3 782.5 737 L 791.5 732 L 794 732 L 794 730 Q 799.3 731.3 798.5 728 L 801.5 728 Q 802.6 725.2 806 726 Q 804.8 723 808.5 724 L 811 723.5 Q 810.3 721.3 812.5 722 L 820 719 L 820 717 L 824 717 L 824 715 L 828 715 L 828 713 L 832 713 Q 830.8 710 834.5 711 L 843.5 706 L 847 706 L 847 704 Q 851.1 705.3 850 702 L 854 702 L 854 700 L 858 700 L 858 698 L 862 698 Q 860.8 695 864.5 696 Q 866.9 692.2 873 693 L 873 691 Q 877.1 692.3 876 689 L 880 689 L 880 687 L 884 687 Q 882.8 684 886.5 685 Q 888.1 679.8 895 681 Q 893.9 678.3 896.5 679 L 902 678 Q 900.9 675.3 903.5 676 L 909.5 672 L 912 672 L 912 670 L 916 670 Q 914.8 667 918.5 668 Q 920.9 664.2 927 665 L 927 663 Q 931.1 664.3 930 661 L 934 661 Q 932.8 658 936.5 659 Q 937.8 656 942 657 Q 940.9 654.3 943.5 655 L 953.5 650 L 957 650 Q 955.8 647 959.5 648 L 965.5 644 L 970 644 L 970 642 Q 974.1 643.3 973 640 L 976.5 640 L 981.5 637 L 983.5 637 Q 987.3 638 986 635 L 990 635 L 990 633 L 994.5 633 L 996.5 631 L 999.5 631 L 1006.5 627 L 1010.5 627 L 1012.5 625 Q 1019.3 625.3 1022.5 622 L 1028 622 Q 1026.7 618.3 1032.5 620 L 1034.5 618 L 1046 618 L 1046 616 L 1052 616 L 1052.5 614 L 1060.5 614 L 1063 613.5 L 1063.5 612 L 1078.5 612 L 1086.5 610 Z " /></svg>


